<?xml version="1.0" encoding="UTF-8"?>
<svg version="1.1" xmlns="http://www.w3.org/2000/svg" width="1024" height="1024">
<path d="M0 0 C337.92 0 675.84 0 1024 0 C1024 337.92 1024 675.84 1024 1024 C686.08 1024 348.16 1024 0 1024 C0 686.08 0 348.16 0 0 Z " fill="#ADF16E" transform="translate(0,0)"/>
<path d="M0 0 C3.23358435 0.016079 6.46591613 0.00005712 9.69946289 -0.01904297 C27.931896 -0.03997104 45.07373673 1.93282413 62.55297852 7.20361328 C63.74826172 7.55617188 64.94354492 7.90873047 66.17504883 8.27197266 C80.95868698 12.69542344 94.62015729 18.27665302 108.30297852 25.39111328 C109.84598633 26.14134766 109.84598633 26.14134766 111.42016602 26.90673828 C138.16970942 40.68021592 162.89418758 63.1350983 180.92797852 86.95361328 C181.46173096 87.65711914 181.9954834 88.360625 182.54541016 89.08544922 C183.03517334 89.74448242 183.52493652 90.40351563 184.02954102 91.08251953 C184.46862793 91.67234619 184.90771484 92.26217285 185.36010742 92.86987305 C186.30297852 94.39111328 186.30297852 94.39111328 186.30297852 96.39111328 C187.84211914 96.42978516 187.84211914 96.42978516 189.41235352 96.46923828 C215.42857829 97.3503008 241.42580285 101.03384017 267.13696289 104.92456055 C269.38598905 105.2559832 271.6376478 105.56975335 273.89086914 105.87133789 C280.43797427 106.75358743 286.72770953 107.79570314 293.05297852 109.70361328 C294.57883255 110.14826806 296.10488042 110.59225814 297.63110352 111.03564453 C298.39745117 111.26074707 299.16379883 111.48584961 299.95336914 111.71777344 C302.3274384 112.39812288 304.70959624 113.03192915 307.09985352 113.65283203 C308.2817627 113.96450317 308.2817627 113.96450317 309.48754883 114.2824707 C310.96924174 114.67195409 312.4528353 115.05432034 313.9387207 115.42749023 C318.07683942 116.53477165 321.74886542 118.03109278 325.57055664 119.97900391 C326.46005005 120.4303772 327.34954346 120.88175049 328.26599121 121.34680176 C329.27429993 121.86373596 329.27429993 121.86373596 330.30297852 122.39111328 C330.50397958 131.47534896 330.6875984 140.559727 330.84956646 149.64474297 C330.92532483 153.86413521 331.00687066 158.08324373 331.10205078 162.30224609 C331.19383497 166.38045976 331.26988368 170.45870161 331.33542824 174.53741837 C331.3630134 176.0866894 331.39608858 177.63587356 331.43497276 179.18490219 C331.72998189 191.15022715 330.09032595 200.6342642 324.55297852 211.32861328 C324.20082275 212.01608643 323.84866699 212.70355957 323.48583984 213.41186523 C302.60014757 253.60918749 265.51226839 275.44216473 223.94287109 289.62792969 C221.39637565 290.3641125 219.01010414 290.68337126 216.38500977 290.99658203 C213.57589406 291.58812299 212.61444837 291.9576419 210.92114258 294.31420898 C209.71563632 296.96690385 208.77244369 299.6222265 207.86547852 302.39111328 C207.12584841 304.40358373 206.37697613 306.41267905 205.61938477 308.41845703 C205.24185059 309.42505371 204.86431641 310.43165039 204.4753418 311.46875 C195.07044334 334.91244731 176.55502448 360.01629616 157.30297852 376.39111328 C156.64297852 376.39111328 155.98297852 376.39111328 155.30297852 376.39111328 C155.30297852 377.05111328 155.30297852 377.71111328 155.30297852 378.39111328 C153.34195084 380.12846124 151.37779447 381.73610104 149.30297852 383.32861328 C148.67359375 383.81515381 148.04420898 384.30169434 147.39575195 384.80297852 C127.85976392 399.75315548 106.76768759 412.56954359 83.30297852 420.39111328 C94.30568863 421.19308942 105.24901027 421.56633336 116.27954102 421.59423828 C117.05381817 421.59706566 117.82809532 421.59989304 118.62583542 421.60280609 C122.72313504 421.61764109 126.82040089 421.62696927 130.91772461 421.63134766 C134.2472634 421.6357282 137.57654248 421.64962596 140.90600586 421.67236328 C158.52030504 421.7903055 175.75293188 421.82710941 193.16143799 418.74385071 C196.67340415 418.16538773 200.2005136 417.81987026 203.74047852 417.45361328 C211.50028386 416.49746619 218.80046485 414.53805901 226.30297852 412.39111328 C228.86517283 411.74406827 231.42767209 411.09822956 233.99047852 410.45361328 C240.73035326 408.64978788 246.94294953 406.23266089 253.30297852 403.39111328 C254.58327993 402.84591155 255.86458834 402.30307041 257.14672852 401.76220703 C275.63510165 393.91515194 291.82940876 384.35979107 306.30297852 370.39111328 C306.98360352 369.76205078 307.66422852 369.13298828 308.36547852 368.48486328 C317.92989 359.43283098 325.45218184 346.93907512 329.30297852 334.39111328 C329.63297852 334.39111328 329.96297852 334.39111328 330.30297852 334.39111328 C330.21687975 353.93553358 320.08571943 373.70981063 307.05297852 387.82861328 C306.14547852 388.67423828 305.23797852 389.51986328 304.30297852 390.39111328 C303.68680664 391.01244141 303.07063477 391.63376953 302.43579102 392.27392578 C296.85851471 397.65821675 290.84493122 401.82098404 284.30297852 405.95361328 C283.4533252 406.49058838 282.60367188 407.02756348 281.72827148 407.58081055 C275.57454894 411.39111328 275.57454894 411.39111328 273.30297852 411.39111328 C273.30297852 412.05111328 273.30297852 412.71111328 273.30297852 413.39111328 C266.03120342 416.33578882 259.0262687 418.95117782 251.30297852 420.39111328 C251.30297852 421.05111328 251.30297852 421.71111328 251.30297852 422.39111328 C248.45030479 423.20918162 245.59602667 424.02069124 242.74047852 424.82861328 C241.94061523 425.05871094 241.14075195 425.28880859 240.31665039 425.52587891 C235.648239 426.84065599 231.12776278 427.796717 226.30297852 428.39111328 C224.80772552 428.62780035 223.31297207 428.86765486 221.81860352 429.10986328 C210.41359851 430.84813096 199.08102622 431.69687401 187.5559082 431.9765625 C186.81010042 431.99627601 186.06429263 432.01598953 185.29588461 432.03630042 C166.81682591 432.5206143 148.33742233 432.53791468 129.85322261 432.52527452 C125.93951423 432.52342052 122.0258108 432.52531819 118.11210269 432.5271762 C105.36141526 432.53317541 92.61074667 432.52735471 79.86006212 432.51837206 C76.54747432 432.51610952 73.23488647 432.51414061 69.92229843 432.51226425 C42.729732 432.4966915 15.53720858 432.46584693 -11.65532589 432.42155933 C-22.600762 432.40388226 -33.54619103 432.38821656 -44.49163818 432.3793335 C-45.52822291 432.37848763 -46.56480765 432.37764176 -47.63280404 432.37677026 C-48.66278602 432.37593304 -49.692768 432.37509583 -50.75396156 432.37423325 C-70.35736129 432.35826688 -89.9605783 432.32549346 -109.56386757 432.25580978 C-118.55883997 432.22410172 -127.55367387 432.1994622 -136.54870605 432.19610596 C-144.13969631 432.1931607 -151.73040241 432.17288865 -159.32128054 432.13078934 C-163.14462963 432.11002184 -166.96757772 432.09629872 -170.7909832 432.10492516 C-189.26270232 432.14003745 -206.69080729 430.6365726 -224.79561806 426.97464561 C-227.40675646 426.44949159 -230.02024028 425.96030943 -232.64250183 425.49446106 C-238.69332055 424.41779002 -244.29582178 423.08090254 -249.92749023 420.60595703 C-252.12614712 419.64152502 -254.32012681 418.75388842 -256.56030273 417.89501953 C-286.17870168 406.40866925 -307.76298922 386.92270315 -321.69702148 358.39111328 C-322.99961017 355.41853909 -323.89574404 352.53128873 -324.69702148 349.39111328 C-325.07334198 347.91766528 -325.07334198 347.91766528 -325.4572649 346.41445065 C-327.98458573 335.31331869 -328.10265176 324.57398566 -328.03759766 313.22729492 C-328.0367497 311.13643913 -328.03722981 309.04558245 -328.03892517 306.95472717 C-328.03977996 301.32348375 -328.02223846 295.6924351 -328.0012033 290.06123662 C-327.98234974 284.159604 -327.98067925 278.25796608 -327.97712708 272.35630798 C-327.96783198 261.20073513 -327.94325275 250.04525131 -327.91307861 238.88971752 C-327.87945535 226.18103877 -327.86302871 213.4723556 -327.8479923 200.76364338 C-327.81670078 174.63941748 -327.76398995 148.51527039 -327.69702148 122.39111328 C-325.32742068 121.42859132 -322.95650028 120.46956784 -320.5847168 119.51245117 C-319.92126251 119.24254616 -319.25780823 118.97264114 -318.57424927 118.69455719 C-312.63995313 116.3051192 -306.63701017 114.44633343 -300.44702148 112.82861328 C-298.78956909 112.39101685 -298.78956909 112.39101685 -297.09863281 111.94458008 C-261.02412998 102.67206093 -222.91377646 98.21099352 -185.71655273 96.60205078 C-184.22188477 96.49763672 -184.22188477 96.49763672 -182.69702148 96.39111328 C-181.6412793 96.33117187 -181.6412793 96.33117187 -180.56420898 96.27001953 C-177.40429515 94.78261239 -175.87566048 91.7876117 -174.00952148 88.95361328 C-170.25933134 83.47712301 -166.30513449 78.47569865 -161.76733398 73.61376953 C-159.90076192 71.60984594 -158.14086074 69.55358413 -156.38452148 67.45361328 C-142.98679939 52.1550702 -126.08812482 40.1320844 -108.80493164 29.671875 C-107.02153124 28.58828472 -105.25388685 27.4788272 -103.48999023 26.36376953 C-92.57664876 19.63260367 -80.17721327 14.31255215 -67.79077148 10.96142578 C-65.67514146 10.38515342 -63.63828427 9.68605718 -61.57202148 8.95361328 C-41.42357038 2.22572139 -21.16727319 -0.12478628 0 0 Z " fill="#3DB01D" transform="translate(509.697021484375,296.60888671875)"/>
<path d="M0 0 C3.23358435 0.016079 6.46591613 0.00005712 9.69946289 -0.01904297 C27.931896 -0.03997104 45.07373673 1.93282413 62.55297852 7.20361328 C63.74826172 7.55617188 64.94354492 7.90873047 66.17504883 8.27197266 C80.95868698 12.69542344 94.62015729 18.27665302 108.30297852 25.39111328 C109.84598633 26.14134766 109.84598633 26.14134766 111.42016602 26.90673828 C138.16970942 40.68021592 162.89418758 63.1350983 180.92797852 86.95361328 C181.46173096 87.65711914 181.9954834 88.360625 182.54541016 89.08544922 C183.03517334 89.74448242 183.52493652 90.40351563 184.02954102 91.08251953 C184.46862793 91.67234619 184.90771484 92.26217285 185.36010742 92.86987305 C186.30297852 94.39111328 186.30297852 94.39111328 186.30297852 96.39111328 C187.84211914 96.42978516 187.84211914 96.42978516 189.41235352 96.46923828 C215.42857829 97.3503008 241.42580285 101.03384017 267.13696289 104.92456055 C269.38598905 105.2559832 271.6376478 105.56975335 273.89086914 105.87133789 C280.43797427 106.75358743 286.72770953 107.79570314 293.05297852 109.70361328 C294.57883255 110.14826806 296.10488042 110.59225814 297.63110352 111.03564453 C298.39745117 111.26074707 299.16379883 111.48584961 299.95336914 111.71777344 C302.3274384 112.39812288 304.70959624 113.03192915 307.09985352 113.65283203 C308.2817627 113.96450317 308.2817627 113.96450317 309.48754883 114.2824707 C310.96924174 114.67195409 312.4528353 115.05432034 313.9387207 115.42749023 C318.07683942 116.53477165 321.74886542 118.03109278 325.57055664 119.97900391 C326.46005005 120.4303772 327.34954346 120.88175049 328.26599121 121.34680176 C329.27429993 121.86373596 329.27429993 121.86373596 330.30297852 122.39111328 C330.50397958 131.47534896 330.6875984 140.559727 330.84956646 149.64474297 C330.92532483 153.86413521 331.00687066 158.08324373 331.10205078 162.30224609 C331.19383497 166.38045976 331.26988368 170.45870161 331.33542824 174.53741837 C331.3630134 176.0866894 331.39608858 177.63587356 331.43497276 179.18490219 C331.72998189 191.15022715 330.09032595 200.6342642 324.55297852 211.32861328 C324.20082275 212.01608643 323.84866699 212.70355957 323.48583984 213.41186523 C302.60014757 253.60918749 265.51226839 275.44216473 223.94287109 289.62792969 C221.39637565 290.3641125 219.01010414 290.68337126 216.38500977 290.99658203 C213.57589406 291.58812299 212.61444837 291.9576419 210.92114258 294.31420898 C209.71563632 296.96690385 208.77244369 299.6222265 207.86547852 302.39111328 C207.12584841 304.40358373 206.37697613 306.41267905 205.61938477 308.41845703 C205.24185059 309.42505371 204.86431641 310.43165039 204.4753418 311.46875 C195.07044334 334.91244731 176.55502448 360.01629616 157.30297852 376.39111328 C156.64297852 376.39111328 155.98297852 376.39111328 155.30297852 376.39111328 C155.30297852 377.05111328 155.30297852 377.71111328 155.30297852 378.39111328 C153.34195084 380.12846124 151.37779447 381.73610104 149.30297852 383.32861328 C148.67359375 383.81515381 148.04420898 384.30169434 147.39575195 384.80297852 C127.85976392 399.75315548 106.76768759 412.56954359 83.30297852 420.39111328 C94.30568863 421.19308942 105.24901027 421.56633336 116.27954102 421.59423828 C117.05381817 421.59706566 117.82809532 421.59989304 118.62583542 421.60280609 C122.72313504 421.61764109 126.82040089 421.62696927 130.91772461 421.63134766 C134.2472634 421.6357282 137.57654248 421.64962596 140.90600586 421.67236328 C158.52030504 421.7903055 175.75293188 421.82710941 193.16143799 418.74385071 C196.67340415 418.16538773 200.2005136 417.81987026 203.74047852 417.45361328 C211.50028386 416.49746619 218.80046485 414.53805901 226.30297852 412.39111328 C228.86517283 411.74406827 231.42767209 411.09822956 233.99047852 410.45361328 C240.73035326 408.64978788 246.94294953 406.23266089 253.30297852 403.39111328 C254.58327993 402.84591155 255.86458834 402.30307041 257.14672852 401.76220703 C275.63510165 393.91515194 291.82940876 384.35979107 306.30297852 370.39111328 C306.98360352 369.76205078 307.66422852 369.13298828 308.36547852 368.48486328 C317.92989 359.43283098 325.45218184 346.93907512 329.30297852 334.39111328 C329.63297852 334.39111328 329.96297852 334.39111328 330.30297852 334.39111328 C330.21687975 353.93553358 320.08571943 373.70981063 307.05297852 387.82861328 C306.14547852 388.67423828 305.23797852 389.51986328 304.30297852 390.39111328 C303.68680664 391.01244141 303.07063477 391.63376953 302.43579102 392.27392578 C296.85851471 397.65821675 290.84493122 401.82098404 284.30297852 405.95361328 C283.4533252 406.49058838 282.60367188 407.02756348 281.72827148 407.58081055 C275.57454894 411.39111328 275.57454894 411.39111328 273.30297852 411.39111328 C273.30297852 412.05111328 273.30297852 412.71111328 273.30297852 413.39111328 C266.03120342 416.33578882 259.0262687 418.95117782 251.30297852 420.39111328 C251.30297852 421.05111328 251.30297852 421.71111328 251.30297852 422.39111328 C248.45030479 423.20918162 245.59602667 424.02069124 242.74047852 424.82861328 C241.94061523 425.05871094 241.14075195 425.28880859 240.31665039 425.52587891 C235.648239 426.84065599 231.12776278 427.796717 226.30297852 428.39111328 C224.80772552 428.62780035 223.31297207 428.86765486 221.81860352 429.10986328 C210.41359851 430.84813096 199.08102622 431.69687401 187.5559082 431.9765625 C186.81010042 431.99627601 186.06429263 432.01598953 185.29588461 432.03630042 C166.81682591 432.5206143 148.33742233 432.53791468 129.85322261 432.52527452 C125.93951423 432.52342052 122.0258108 432.52531819 118.11210269 432.5271762 C105.36141526 432.53317541 92.61074667 432.52735471 79.86006212 432.51837206 C76.54747432 432.51610952 73.23488647 432.51414061 69.92229843 432.51226425 C42.729732 432.4966915 15.53720858 432.46584693 -11.65532589 432.42155933 C-22.600762 432.40388226 -33.54619103 432.38821656 -44.49163818 432.3793335 C-45.52822291 432.37848763 -46.56480765 432.37764176 -47.63280404 432.37677026 C-48.66278602 432.37593304 -49.692768 432.37509583 -50.75396156 432.37423325 C-70.35736129 432.35826688 -89.9605783 432.32549346 -109.56386757 432.25580978 C-118.55883997 432.22410172 -127.55367387 432.1994622 -136.54870605 432.19610596 C-144.13969631 432.1931607 -151.73040241 432.17288865 -159.32128054 432.13078934 C-163.14462963 432.11002184 -166.96757772 432.09629872 -170.7909832 432.10492516 C-189.26270232 432.14003745 -206.69080729 430.6365726 -224.79561806 426.97464561 C-227.40675646 426.44949159 -230.02024028 425.96030943 -232.64250183 425.49446106 C-238.69332055 424.41779002 -244.29582178 423.08090254 -249.92749023 420.60595703 C-252.12614712 419.64152502 -254.32012681 418.75388842 -256.56030273 417.89501953 C-286.17870168 406.40866925 -307.76298922 386.92270315 -321.69702148 358.39111328 C-322.99961017 355.41853909 -323.89574404 352.53128873 -324.69702148 349.39111328 C-325.07334198 347.91766528 -325.07334198 347.91766528 -325.4572649 346.41445065 C-327.98458573 335.31331869 -328.10265176 324.57398566 -328.03759766 313.22729492 C-328.0367497 311.13643913 -328.03722981 309.04558245 -328.03892517 306.95472717 C-328.03977996 301.32348375 -328.02223846 295.6924351 -328.0012033 290.06123662 C-327.98234974 284.159604 -327.98067925 278.25796608 -327.97712708 272.35630798 C-327.96783198 261.20073513 -327.94325275 250.04525131 -327.91307861 238.88971752 C-327.87945535 226.18103877 -327.86302871 213.4723556 -327.8479923 200.76364338 C-327.81670078 174.63941748 -327.76398995 148.51527039 -327.69702148 122.39111328 C-325.32742068 121.42859132 -322.95650028 120.46956784 -320.5847168 119.51245117 C-319.92126251 119.24254616 -319.25780823 118.97264114 -318.57424927 118.69455719 C-312.63995313 116.3051192 -306.63701017 114.44633343 -300.44702148 112.82861328 C-298.78956909 112.39101685 -298.78956909 112.39101685 -297.09863281 111.94458008 C-261.02412998 102.67206093 -222.91377646 98.21099352 -185.71655273 96.60205078 C-184.22188477 96.49763672 -184.22188477 96.49763672 -182.69702148 96.39111328 C-181.6412793 96.33117187 -181.6412793 96.33117187 -180.56420898 96.27001953 C-177.40429515 94.78261239 -175.87566048 91.7876117 -174.00952148 88.95361328 C-170.25933134 83.47712301 -166.30513449 78.47569865 -161.76733398 73.61376953 C-159.90076192 71.60984594 -158.14086074 69.55358413 -156.38452148 67.45361328 C-142.98679939 52.1550702 -126.08812482 40.1320844 -108.80493164 29.671875 C-107.02153124 28.58828472 -105.25388685 27.4788272 -103.48999023 26.36376953 C-92.57664876 19.63260367 -80.17721327 14.31255215 -67.79077148 10.96142578 C-65.67514146 10.38515342 -63.63828427 9.68605718 -61.57202148 8.95361328 C-41.42357038 2.22572139 -21.16727319 -0.12478628 0 0 Z M-141.69702148 79.39111328 C-142.24503418 79.94186523 -142.79304688 80.49261719 -143.35766602 81.06005859 C-149.88281882 87.69968777 -155.43105134 94.81472908 -160.51831055 102.61328125 C-161.75046186 104.47171659 -163.02839228 106.29211759 -164.31420898 108.11376953 C-176.84594684 126.21516866 -186.038938 147.86755512 -190.69702148 169.39111328 C-190.86766113 170.10557617 -191.03830078 170.82003906 -191.21411133 171.55615234 C-194.3672977 184.99242942 -195.07953127 198.15087551 -195.07202148 211.89111328 C-195.07374359 212.6962738 -195.0754657 213.50143433 -195.07723999 214.33099365 C-195.06728861 255.4448524 -182.00500559 295.8154596 -156.69702148 328.39111328 C-155.7630957 329.61314453 -155.7630957 329.61314453 -154.81030273 330.85986328 C-149.88980731 337.16767892 -144.58327103 343.09824927 -139.09399414 348.91064453 C-137.77027554 350.31348088 -136.45790802 351.72700283 -135.14624023 353.14111328 C-101.32198752 388.45383842 -50.90864688 408.4830666 -2.47045898 409.76220703 C0.32931515 409.81378477 3.12775899 409.82984197 5.92797852 409.82861328 C6.67122375 409.82934845 7.41446899 409.83008362 8.18023682 409.83084106 C31.56325956 409.77098638 54.53578874 406.1915822 76.30297852 397.39111328 C77.46676025 396.9210083 77.46676025 396.9210083 78.65405273 396.44140625 C83.95355227 394.25925938 89.14383182 391.8853245 94.30297852 389.39111328 C95.00874023 389.0538623 95.71450195 388.71661133 96.44165039 388.36914062 C112.83902105 380.4377219 127.11849003 369.90633839 140.30297852 357.39111328 C141.6517752 356.23896359 143.00560882 355.09267245 144.36547852 353.95361328 C164.88214095 336.02764957 178.36412901 311.93772311 189.30297852 287.39111328 C190.05708008 285.73789062 190.05708008 285.73789062 190.82641602 284.05126953 C193.81254083 276.96635556 195.64726154 269.58735412 197.49047852 262.14111328 C197.74087891 261.14176758 197.9912793 260.14242187 198.24926758 259.11279297 C201.83499894 243.95956017 202.71231289 228.84164475 202.67797852 213.32861328 C202.67809937 212.48137695 202.67822021 211.63414062 202.67834473 210.76123047 C202.64983457 196.65732387 201.56227759 183.15570678 198.30297852 169.39111328 C198.12686035 168.62927734 197.95074219 167.86744141 197.76928711 167.08251953 C190.60872248 136.73633062 174.80546888 108.64625282 154.30297852 85.39111328 C153.65329102 84.61896484 153.00360352 83.84681641 152.33422852 83.05126953 C148.97331813 79.0716461 145.4254099 75.58887078 141.44750977 72.22705078 C139.12733415 70.24074379 136.91121584 68.16199344 134.67797852 66.07861328 C118.95657086 51.94134746 100.46887803 42.00741978 81.30297852 33.39111328 C79.62848633 32.63121094 79.62848633 32.63121094 77.92016602 31.85595703 C70.57260862 28.65242201 63.05268275 26.40794205 55.30297852 24.39111328 C54.42335449 24.15191162 53.54373047 23.91270996 52.63745117 23.66625977 C-17.15996485 5.25432067 -91.66258138 29.02827701 -141.69702148 79.39111328 Z " fill="#55C417" transform="translate(509.697021484375,296.60888671875)"/>
<path d="M0 0 C1.37135815 0.00056587 2.7427169 0.00024414 4.11407471 -0.00088501 C7.79299439 -0.00145268 11.47178039 0.01020535 15.15066934 0.02426291 C19.01166856 0.03686925 22.87267173 0.03794849 26.73368835 0.04031372 C34.02543225 0.04649966 41.31711529 0.06287089 48.60883254 0.0830127 C56.91851991 0.1054622 65.22821038 0.11638776 73.53792059 0.12640357 C90.6134502 0.14724009 107.68892079 0.18235917 124.7644043 0.22705078 C124.7644043 0.88705078 124.7644043 1.54705078 124.7644043 2.22705078 C126.4040918 2.28892578 126.4040918 2.28892578 128.0769043 2.35205078 C140.42023975 3.9250068 150.10156808 13.64998303 157.36206055 23.02392578 C158.16509315 24.08994188 158.96556169 25.15789121 159.7644043 26.22705078 C160.29404785 26.93539063 160.82369141 27.64373047 161.36938477 28.37353516 C168.94777715 38.53951798 176.52787976 48.71443974 183.44799805 59.34423828 C183.93244385 60.07618408 184.41688965 60.80812988 184.91601562 61.56225586 C185.88030875 63.01996028 186.83252271 64.48574547 187.77099609 65.96020508 C188.43675659 66.96047729 188.43675659 66.96047729 189.1159668 67.98095703 C189.50606934 68.58238525 189.89617187 69.18381348 190.2980957 69.8034668 C194.09030947 73.48518482 201.64698592 72.63228769 206.66674805 72.94580078 C207.62206924 73.00860229 208.57739044 73.07140381 209.56166077 73.1361084 C212.60821289 73.33624425 215.6550148 73.53212301 218.7019043 73.72705078 C222.71125378 73.98399936 226.72030987 74.24502231 230.72924805 74.50830078 C231.64504135 74.56562378 232.56083466 74.62294678 233.50437927 74.68200684 C237.99091403 74.97663261 242.33098301 75.45298625 246.7644043 76.22705078 C248.82867228 76.39836072 250.8955496 76.54002663 252.96362305 76.65673828 C254.15930908 76.72828125 255.35499512 76.79982422 256.58691406 76.87353516 C258.50008423 76.98665039 258.50008423 76.98665039 260.4519043 77.10205078 C272.83578318 77.86687339 285.1280577 79.05379708 297.4519043 80.50830078 C301.55258914 80.98955475 305.65029456 81.41001636 309.7644043 81.75830078 C310.70662842 81.83886719 311.64885254 81.91943359 312.61962891 82.00244141 C314.34368408 82.14547782 316.06843893 82.28047356 317.79394531 82.40478516 C322.96223662 82.83874332 327.58378739 83.95182864 332.52148438 85.53173828 C335.10272238 86.33193049 337.6561288 86.82580751 340.3269043 87.22705078 C351.2205871 89.1467767 362.42982807 93.31202844 370.02612305 101.73486328 C376.72816316 111.34363091 374.9034945 123.92270718 374.86206055 135.17626953 C374.86019096 136.68512423 374.85876962 138.19397955 374.85777283 139.70283508 C374.85399016 143.6367669 374.84419718 147.57066066 374.83306885 151.50457764 C374.82276234 155.53380824 374.81825559 159.56304511 374.81323242 163.59228516 C374.80257025 171.47055766 374.78554618 179.34879946 374.7644043 187.22705078 C373.50885742 187.08912109 372.25331055 186.95119141 370.9597168 186.80908203 C370.25347168 186.73149658 369.54722656 186.65391113 368.81958008 186.57397461 C366.3189715 186.15185952 364.19829939 185.17444331 361.90893555 184.10986328 C357.3407381 182.22933027 352.52460775 181.06242153 347.76408386 179.77035522 C345.93993556 179.27474188 344.11734175 178.77341607 342.29492188 178.27148438 C331.91967195 175.53642554 321.51276576 173.74733144 310.89666748 172.22351074 C307.80760464 171.77774677 304.72199851 171.31158795 301.63598633 170.84521484 C290.42940455 169.19406438 279.30942307 167.97466138 267.9987793 167.33251953 C265.7407233 167.18392035 263.48274649 167.03411264 261.22485352 166.88305664 C256.92683481 166.59686685 252.64482302 166.42692677 248.33911133 166.3190918 C234.5993538 165.62207472 234.5993538 165.62207472 229.55807495 161.36309814 C225.43698268 156.79956243 222.24461849 151.71574258 219.12329102 146.43701172 C216.50018057 142.17104051 213.06292226 138.6644491 209.5769043 135.10205078 C208.90747803 134.40523193 208.23805176 133.70841309 207.54833984 132.99047852 C202.28261928 127.58570399 196.79173853 122.77598228 190.7644043 118.22705078 C189.76280273 117.43298828 188.76120117 116.63892578 187.72924805 115.82080078 C175.11722617 105.84603137 161.86927307 96.94444961 147.2644043 90.16455078 C146.54381836 89.82617188 145.82323242 89.48779297 145.08081055 89.13916016 C132.07099126 83.0577166 118.83818376 77.92622236 105.0144043 74.03955078 C104.19576904 73.80196045 103.37713379 73.56437012 102.53369141 73.31958008 C85.02167351 68.55629788 67.38469167 67.65364793 49.3269043 67.72705078 C48.23510864 67.72781616 47.14331299 67.72858154 46.01843262 67.72937012 C20.71108221 67.79320981 -3.53125234 70.73516168 -27.2355957 80.22705078 C-27.90816406 80.49356445 -28.58073242 80.76007813 -29.27368164 81.03466797 C-55.66365808 91.54913799 -81.70122435 105.89958553 -101.5793457 126.57470703 C-103.27958719 128.27093851 -105.06809818 129.76525978 -106.9230957 131.28955078 C-115.95847946 139.1190516 -123.40230561 148.91402457 -129.93823242 158.87182617 C-132.77507588 163.06639723 -132.77507588 163.06639723 -135.07617188 163.86914062 C-137.37265058 164.24976672 -139.61930123 164.47116729 -141.94262695 164.62158203 C-142.90064209 164.68756592 -143.85865723 164.7535498 -144.84570312 164.8215332 C-145.90249268 164.893479 -146.95928223 164.9654248 -148.0480957 165.03955078 C-190.79697893 168.2220387 -235.55570873 171.7191437 -275.83422852 187.46850586 C-278.2355957 188.22705078 -278.2355957 188.22705078 -282.2355957 188.22705078 C-282.3516614 177.673863 -282.44039818 167.12082812 -282.49465656 156.56713104 C-282.52070358 151.66610602 -282.55601185 146.76551905 -282.61279297 141.86474609 C-282.66728783 137.13145162 -282.69705304 132.39857736 -282.70998192 127.66499329 C-282.71919052 125.86291391 -282.73717298 124.06085644 -282.76424599 122.25895691 C-283.01578947 104.81661357 -283.01578947 104.81661357 -277.2355957 98.22705078 C-267.02104229 87.88374249 -248.2480223 85.1869225 -234.58154297 82.66430664 C-232.99812637 82.36917716 -231.41779605 82.0570545 -229.84082031 81.72924805 C-221.1466262 79.99073958 -212.37260741 79.34677276 -203.5480957 78.66455078 C-202.73222992 78.5994632 -201.91636414 78.53437561 -201.07577515 78.46731567 C-190.21693968 77.60143976 -179.36691078 76.85463653 -168.47314453 76.60571289 C-162.93600284 76.4523931 -157.49433924 75.92875313 -151.99731445 75.26611328 C-141.10352519 73.97486919 -130.19168602 73.57858383 -119.2355957 73.16455078 C-116.24949022 73.04798555 -113.26348598 72.92951932 -110.27758789 72.80775452 C-108.44112958 72.73321515 -106.60454429 72.6617097 -104.76782227 72.59397888 C-102.25543251 72.49399829 -99.74622112 72.36390378 -97.2355957 72.22705078 C-96.33844345 72.19425522 -95.4412912 72.16145966 -94.51695251 72.12767029 C-89.2878944 71.87791755 -89.2878944 71.87791755 -84.86279297 69.34106445 C-84.34773193 68.53386963 -83.8326709 67.7266748 -83.30200195 66.89501953 C-82.42318359 65.5734082 -82.42318359 65.5734082 -81.52661133 64.22509766 C-80.95620117 63.29761719 -80.38579102 62.37013672 -79.7980957 61.41455078 C-78.901875 60.04073242 -78.901875 60.04073242 -77.98754883 58.63916016 C-76.87749514 56.93625099 -75.78084474 55.22446946 -74.70263672 53.5012207 C-73.29359662 51.31696234 -71.91204383 49.21503861 -70.2355957 47.22705078 C-69.5755957 47.22705078 -68.9155957 47.22705078 -68.2355957 47.22705078 C-68.15051758 46.68048828 -68.06543945 46.13392578 -67.9777832 45.57080078 C-66.99292751 42.46073017 -65.31475973 40.33260282 -63.3605957 37.72705078 C-62.31258789 36.31939453 -62.31258789 36.31939453 -61.2434082 34.88330078 C-60.58083008 34.00673828 -59.91825195 33.13017578 -59.2355957 32.22705078 C-58.69676758 31.45361328 -58.15793945 30.68017578 -57.6027832 29.88330078 C-57.15161133 29.33673828 -56.70043945 28.79017578 -56.2355957 28.22705078 C-55.5755957 28.22705078 -54.9155957 28.22705078 -54.2355957 28.22705078 C-54.04030273 27.36466797 -54.04030273 27.36466797 -53.84106445 26.48486328 C-51.01767053 15.95633626 -43.23583318 10.50925567 -34.2355957 5.22705078 C-23.8169087 -0.30706476 -11.52356384 -0.06612917 0 0 Z " fill="#FBFDFA" transform="translate(464.235595703125,229.77294921875)"/>
<path d="M0 0 C0.69383789 0.1863501 1.38767578 0.3727002 2.10253906 0.56469727 C34.22100113 9.43367526 65.36679466 26.40771278 88.53515625 50.5390625 C90.15928429 52.21716525 90.15928429 52.21716525 92.875 54.25 C97.64283087 58.11752238 101.19966291 63.22354893 105 68 C105.6496875 68.76054687 106.299375 69.52109375 106.96875 70.3046875 C116.5341278 81.63417186 123.58347438 94.70117247 130 108 C130.45673096 108.94254639 130.91346191 109.88509277 131.3840332 110.85620117 C133.82687871 116.0452461 135.77861242 121.15217903 137.31884766 126.67578125 C137.94404821 128.80908206 138.68896888 130.81667943 139.5234375 132.875 C141.53281295 138.09361264 142.52853885 143.53123082 143.625 149 C143.8415625 150.0415625 144.058125 151.083125 144.28125 152.15625 C146.03399792 160.72523981 147.15514535 168.97491607 147.16796875 177.71484375 C147.17129715 178.52885147 147.17462555 179.34285919 147.17805481 180.18153381 C147.18308973 181.89844199 147.1854642 183.61535984 147.18530273 185.33227539 C147.18746789 187.89942555 147.20560133 190.46612994 147.22460938 193.03320312 C147.28037112 208.61194598 145.82648532 223.47287059 142 238.625 C141.6994873 239.81649658 141.39897461 241.00799316 141.08935547 242.2355957 C137.94975985 254.07727993 133.3859175 265.0221463 128 276 C127.42330566 277.19254395 127.42330566 277.19254395 126.83496094 278.40917969 C108.77968602 315.38249245 77.55041894 345.53787532 41 364 C40.34547852 364.33080566 39.69095703 364.66161133 39.01660156 365.00244141 C24.62898785 372.17423763 9.76234506 377.73452043 -6 381 C-6.85045898 381.18336914 -7.70091797 381.36673828 -8.57714844 381.55566406 C-60.45576923 392.40885517 -115.43703868 382.09118824 -159.87353516 353.28442383 C-179.39325584 340.3540221 -196.74564665 324.35249696 -210.78320312 305.61816406 C-211.8656382 304.17868178 -212.97037125 302.75602784 -214.078125 301.3359375 C-229.1105657 281.59822065 -239.98171311 258.28361266 -245 234 C-245.35662809 232.45739167 -245.7174992 230.9157597 -246.08203125 229.375 C-246.45129392 227.79184679 -246.81979821 226.20851647 -247.1875 224.625 C-247.35491699 223.91166504 -247.52233398 223.19833008 -247.69482422 222.46337891 C-250.12602384 211.61204933 -250.18637346 200.79248184 -250.18530273 189.72436523 C-250.18748619 187.20344061 -250.20568889 184.68295682 -250.22460938 182.16210938 C-250.27305616 168.29336426 -248.3281054 155.4694077 -245 142 C-244.62101562 140.31003906 -244.62101562 140.31003906 -244.234375 138.5859375 C-241.49359263 127.14940015 -236.88284261 116.66424894 -232 106 C-231.6915918 105.3198584 -231.38318359 104.6397168 -231.06542969 103.93896484 C-226.64569228 94.29383504 -221.08936461 85.64413975 -215 77 C-214.30261719 75.99324219 -213.60523438 74.98648438 -212.88671875 73.94921875 C-206.39167929 64.90998305 -198.79596309 56.92020994 -191 49 C-190.49629883 48.48550293 -189.99259766 47.97100586 -189.47363281 47.44091797 C-142.13671883 -0.24188161 -63.91649669 -17.55788254 0 0 Z M-95 19 C-96.18722656 19.32355469 -97.37445313 19.64710938 -98.59765625 19.98046875 C-101.76512998 20.90541638 -104.87555552 21.93999152 -108 23 C-109.12792969 23.33386719 -110.25585938 23.66773438 -111.41796875 24.01171875 C-136.95526148 31.81249949 -158.6593025 46.92899715 -178 65 C-178.87527344 65.80953125 -179.75054687 66.6190625 -180.65234375 67.453125 C-198.66468842 84.71603209 -210.43441217 106.20140619 -220 129 C-220.64775391 130.52367187 -220.64775391 130.52367187 -221.30859375 132.078125 C-236.52121653 170.67201627 -232.54258652 217.76969088 -216.62890625 255.4140625 C-207.40559449 275.71861933 -195.78424113 293.42613009 -180.36914062 309.56347656 C-179.04194932 310.95598613 -177.7316017 312.36448908 -176.421875 313.7734375 C-144.89385119 346.71739052 -98.3916523 364.14133406 -53.39985657 365.41213989 C-36.79969994 365.76301339 -21.15096035 364.03559197 -5 360 C-4.19578613 359.80776855 -3.39157227 359.61553711 -2.56298828 359.41748047 C23.33490321 353.11890612 48.32752532 339.2216254 67.7734375 321.07421875 C69.79952496 319.18675832 71.87896905 317.40379289 74 315.625 C103.28753049 289.91770871 123.32920296 248.76247114 126.8190918 210.01318359 C127.96130971 190.98855008 128.69361251 170.5742303 124 152 C123.76361816 151.05769531 123.52723633 150.11539063 123.28369141 149.14453125 C120.01951497 136.49659897 116.16802759 124.53256877 110 113 C109.62472168 112.28118652 109.24944336 111.56237305 108.86279297 110.82177734 C103.64966378 100.87288094 98.07785218 91.74692016 91 83 C90.29359375 82.09121094 89.5871875 81.18242187 88.859375 80.24609375 C68.97293654 55.10190988 39.05477774 32.86594735 8 24 C6.62343214 23.50433284 5.24837343 23.00445062 3.875 22.5 C-0.59656113 21.01218966 -5.15706491 19.97241965 -9.75 18.9375 C-10.82145264 18.69386719 -10.82145264 18.69386719 -11.91455078 18.4453125 C-14.27070868 17.92952621 -16.63191338 17.45792738 -19 17 C-19.90878906 16.81759766 -20.81757812 16.63519531 -21.75390625 16.44726562 C-31.97289878 14.61729199 -42.15261722 14.60445566 -52.5 14.625 C-53.43242523 14.62487915 -54.36485046 14.6247583 -55.32553101 14.62463379 C-68.90802998 14.64974412 -81.87398404 15.19905572 -95 19 Z " fill="#FAFCF8" transform="translate(565,321)"/>
<path d="M0 0 C0.33 0 0.66 0 1 0 C1.04688404 16.31694395 1.08206876 32.63386579 1.10362434 48.95086098 C1.11390249 56.52846158 1.12789597 64.10602014 1.15087891 71.68359375 C1.17091948 78.29425473 1.18374154 84.90488524 1.18817699 91.51557577 C1.19076646 95.01038794 1.19677909 98.50511298 1.21146011 101.999897 C1.22778094 105.91742743 1.22797292 109.83487546 1.22705078 113.75244141 C1.23424133 114.88965134 1.24143188 116.02686127 1.24884033 117.1985321 C1.18695135 141.68650634 -7.17686081 158.77985457 -24 176 C-24.66773438 176.72960937 -25.33546875 177.45921875 -26.0234375 178.2109375 C-38.32622713 191.3442952 -55.86951053 199.91575602 -72.11621094 207.15429688 C-73.44816374 207.75226014 -74.77381277 208.36435939 -76.09472656 208.98632812 C-81.65004404 211.5600884 -87.22418363 213.38954149 -93.125 215 C-94.04732422 215.25563721 -94.96964844 215.51127441 -95.91992188 215.7746582 C-97.76779001 216.28565097 -99.61640768 216.79394215 -101.46582031 217.29931641 C-103.63839731 217.9000193 -105.80059248 218.52504917 -107.9609375 219.16796875 C-117.45812078 221.90391228 -127.00694646 223.3946591 -136.80462646 224.60061646 C-139.09608346 224.88702122 -141.38571968 225.18814088 -143.67401123 225.49882507 C-153.88638557 226.84429128 -163.88793028 227.2831307 -174.1796875 227.23046875 C-175.76897138 227.22927031 -177.35825598 227.22882518 -178.94754028 227.2290802 C-182.25006667 227.22753262 -185.55248202 227.21938081 -188.85498047 227.20581055 C-193.02896959 227.18884972 -197.20283837 227.18507757 -201.37685776 227.18563652 C-234.08279697 227.18445363 -234.08279697 227.18445363 -250 226 C-247.54173101 224.361154 -245.70959829 223.41487804 -243 222.40625 C-221.0059546 214.0292635 -202.12704735 202.79259401 -183.37109375 188.63671875 C-182.79286865 188.20061279 -182.21464355 187.76450684 -181.61889648 187.31518555 C-179.94234834 186.01010425 -179.94234834 186.01010425 -178.41430664 184.33520508 C-177 183 -177 183 -175 183 C-175 182.34 -175 181.68 -175 181 C-173.63671875 179.6953125 -173.63671875 179.6953125 -171.6875 178.125 C-157.58627749 166.08797761 -146.56996606 150.7561 -137 135 C-136.6302002 134.39881348 -136.26040039 133.79762695 -135.87939453 133.17822266 C-130.22179025 123.89778804 -125.89723211 114.40851795 -122.18164062 104.18554688 C-121.83810547 103.28126953 -121.49457031 102.37699219 -121.140625 101.4453125 C-120.70024902 100.23125732 -120.70024902 100.23125732 -120.25097656 98.99267578 C-117.75124955 95.01087018 -112.58527585 94.5538759 -108.27905273 93.35229492 C-93.41092819 89.19501698 -79.62019239 83.21812151 -66 76 C-65.3714209 75.66709961 -64.7428418 75.33419922 -64.09521484 74.99121094 C-56.10097158 70.70835634 -48.84182106 65.97391296 -42 60 C-40.71802734 58.88238281 -40.71802734 58.88238281 -39.41015625 57.7421875 C-36.91073686 55.52465752 -34.44830662 53.27372449 -32 51 C-31.39542969 50.44957031 -30.79085937 49.89914062 -30.16796875 49.33203125 C-15.87025756 35.77097029 -6.70219194 18.29304152 0 0 Z " fill="#FCFDFC" transform="translate(840,492)"/>
<path d="M0 0 C3.28147717 2.81252071 4.84851612 5.39794704 6.40234375 9.40234375 C6.81516602 10.45107666 7.22798828 11.49980957 7.65332031 12.58032227 C8.28898926 14.24212524 8.28898926 14.24212524 8.9375 15.9375 C9.38061523 17.07179443 9.82373047 18.20608887 10.28027344 19.37475586 C11.52986025 22.57952706 12.76637831 25.78905744 14 29 C14.51595663 30.32589888 15.03267223 31.6515032 15.55078125 32.9765625 C17.25681823 37.36669025 18.91700699 41.77294925 20.55859375 46.1875 C20.82897461 46.91316162 21.09935547 47.63882324 21.37792969 48.38647461 C21.90303275 49.79788704 22.42595334 51.2101141 22.94628906 52.62329102 C23.92265401 55.25214373 24.89833071 57.80560302 26.19921875 60.29296875 C27.35084339 62.74789542 26.70603377 64.45827842 26 67 C20.52638111 66.4560915 16.41682999 64.44606199 11.625 61.9375 C10.88894531 61.56044922 10.15289062 61.18339844 9.39453125 60.79492188 C7.59260354 59.87055636 5.79576901 58.93627386 4 58 C3.79246094 58.77214844 3.58492188 59.54429687 3.37109375 60.33984375 C1.47308912 65.40659684 -1.22523698 69.89200883 -3.9375 74.5625 C-9.83068193 84.84535853 -15.44202835 95.24217224 -20.85449219 105.78515625 C-21.86668656 107.74223795 -22.89949169 109.68575887 -23.9453125 111.625 C-30.01677254 123.12264414 -30.43785587 134.2482043 -31 147 C-31.66 147 -32.32 147 -33 147 C-34.375 145.33984375 -34.375 145.33984375 -36 142.9375 C-36.62390625 142.0196875 -37.2478125 141.101875 -37.890625 140.15625 C-38.58671875 139.1146875 -39.2828125 138.073125 -40 137 C-40.76543256 135.8644536 -41.53106456 134.7290416 -42.296875 133.59375 C-44.4299267 130.4221596 -46.54077904 127.23633844 -48.64550781 124.04589844 C-50.02328482 121.96482934 -51.41382352 119.89265171 -52.8046875 117.8203125 C-57.42846022 110.87466946 -61.79007092 103.88650856 -65.5625 96.4375 C-65.88492676 95.807229 -66.20735352 95.17695801 -66.53955078 94.52758789 C-72.37812346 82.58965084 -72.03661166 71.44349333 -68 59 C-66.10789683 54.79806959 -63.90695794 50.81363571 -61.625 46.8125 C-61.06039063 45.79736328 -60.49578125 44.78222656 -59.9140625 43.73632812 C-58.28799771 40.81731598 -56.64475547 37.90850805 -55 35 C-53.32856826 32.00263694 -51.66342721 29.0018115 -50 26 C-50.83789062 25.76539063 -51.67578125 25.53078125 -52.5390625 25.2890625 C-56.56688594 23.78885738 -59.81846013 21.75097653 -63.375 19.375 C-64.01566406 18.95476562 -64.65632813 18.53453125 -65.31640625 18.1015625 C-66.88155698 17.07370232 -68.44134314 16.03768114 -70 15 C-69.67 13.68 -69.34 12.36 -69 11 C-64.4036862 9.61844059 -59.92209799 8.55419388 -55.17578125 7.78125 C-53.89896484 7.57113281 -52.62214844 7.36101562 -51.30664062 7.14453125 C-49.97527949 6.92956935 -48.64389919 6.71472609 -47.3125 6.5 C-46.01376953 6.28730469 -44.71503906 6.07460938 -43.37695312 5.85546875 C-40.80742171 5.43474186 -38.23768201 5.01528488 -35.66772461 4.59716797 C-32.24402047 4.03973068 -28.82080142 3.47966843 -25.3984375 2.9140625 C-24.48884277 2.76404785 -23.57924805 2.6140332 -22.64208984 2.45947266 C-19.8559123 1.97494243 -17.08537858 1.43018303 -14.3125 0.875 C-4.09265054 -0.9563025 -4.09265054 -0.9563025 0 0 Z " fill="#FBFDFA" transform="translate(440,470)"/>
<path d="M0 0 C1.56161524 -0.01156993 3.12318942 -0.03210023 4.68457031 -0.06152344 C21.17228187 -0.36988206 34.31824076 2.49960021 46.54663086 14.22875977 C51.73985453 19.47906941 55.44124484 25.35683086 59.21459961 31.67016602 C59.87266602 32.74911133 60.53073242 33.82805664 61.20874023 34.93969727 C62.41704331 36.92096803 63.62010767 38.9054513 64.81591797 40.89428711 C65.92757421 42.72085812 67.09100826 44.51602899 68.27709961 46.29516602 C73.1844614 44.43686357 77.7151872 42.00292034 82.33959961 39.53735352 C85.29404071 38.28800209 87.11473767 37.94504737 90.27709961 38.29516602 C90.60709961 38.62516602 90.93709961 38.95516602 91.27709961 39.29516602 C90.85433396 45.19437284 89.47992465 50.12503924 87.33959961 55.60766602 C86.71031184 57.26637549 86.08143119 58.92523945 85.45288086 60.58422852 C85.10821777 61.48560547 84.76355469 62.38698242 84.40844727 63.31567383 C82.24128815 69.0230562 80.14109607 74.75543162 78.02709961 80.48266602 C76.80012776 83.79803115 75.57209995 87.11295004 74.33764648 90.42553711 C73.68573162 92.18948906 73.04404182 93.95731026 72.41967773 95.73120117 C71.12269538 99.3787535 69.96823308 102.47942739 67.27709961 105.29516602 C64.96226501 105.7371521 64.96226501 105.7371521 62.27294922 105.63647461 C61.29123749 105.59979675 60.30952576 105.5631189 59.29806519 105.52532959 C54.60734339 105.16794939 49.98955745 104.56494984 45.34350586 103.83422852 C44.34431625 103.68359955 43.34512665 103.53297058 42.31565857 103.3777771 C39.15576478 102.89947872 35.99773246 102.40994158 32.83959961 101.92016602 C30.72707936 101.59912909 28.61444975 101.27881099 26.50170898 100.95922852 C16.74807572 99.47810742 6.99913409 97.9729733 -2.72290039 96.29516602 C-3.05290039 94.64516602 -3.38290039 92.99516602 -3.72290039 91.29516602 C-1.43245945 89.64760341 0.85938038 88.0020527 3.15209961 86.35766602 C3.80307617 85.8890918 4.45405273 85.42051758 5.12475586 84.93774414 C10.05053711 81.40844727 10.05053711 81.40844727 12.27709961 80.29516602 C11.77688153 75.2929852 10.28168983 72.30189834 7.46459961 68.17016602 C3.6051417 62.40021754 -0.00502854 56.52172091 -3.53540039 50.54516602 C-18.00561339 25.38981327 -18.00561339 25.38981327 -40.41430664 7.80297852 C-41.17614258 7.30540039 -41.93797852 6.80782227 -42.72290039 6.29516602 C-42.72290039 5.30516602 -42.72290039 4.31516602 -42.72290039 3.29516602 C-40.84926366 2.97459362 -38.97385944 2.66435622 -37.09790039 2.35766602 C-36.05375977 2.18364258 -35.00961914 2.00961914 -33.93383789 1.83032227 C-22.70062687 0.2617272 -11.32517328 0.05813866 0 0 Z " fill="#FCFDFB" transform="translate(525.722900390625,366.704833984375)"/>
<path d="M0 0 C1.9375 0.0625 1.9375 0.0625 4 1 C6.23350867 5.98842877 6.24273704 10.53154986 6.125 15.875 C6.11597656 16.65875 6.10695313 17.4425 6.09765625 18.25 C6.07428063 20.16680055 6.03841653 22.08344191 6 24 C15.14604586 23.93839604 24.29179023 23.8610141 33.43753242 23.76428509 C37.68571142 23.71983341 41.93380004 23.68052425 46.18212891 23.65356445 C50.29314855 23.62727683 54.40381558 23.5867018 58.51461411 23.53681374 C60.07158853 23.52031501 61.6286237 23.50869625 63.18567276 23.50238609 C75.80945057 23.44612384 88.03441423 22.91308668 99 16 C100.32 16 101.64 16 103 16 C102.39226489 20.69860876 100.40448097 24.51013451 98.1875 28.625 C97.79369141 29.36065186 97.39988281 30.09630371 96.99414062 30.85424805 C89.71007284 44.23604877 81.46382694 57.05573455 72 69 C71.3296875 69.86882812 70.659375 70.73765625 69.96875 71.6328125 C63.05584237 79.94476096 52.46975695 84.85413202 41.79907227 85.84985352 C35.51722219 86.18682149 29.22595242 86.10054223 22.9375 86.0625 C21.48502759 86.05747414 20.03255349 86.05291316 18.58007812 86.04882812 C15.05334985 86.03791042 11.52668598 86.02070586 8 86 C7.98018066 86.62567871 7.96036133 87.25135742 7.93994141 87.89599609 C7.84485774 90.72276519 7.73511254 93.54877815 7.625 96.375 C7.57859375 97.85226562 7.57859375 97.85226562 7.53125 99.359375 C7.49257813 100.30039062 7.45390625 101.24140625 7.4140625 102.2109375 C7.3826416 103.08024902 7.3512207 103.94956055 7.31884766 104.84521484 C7 107 7 107 5 109 C1.55123123 108.90146375 0.1854964 108.16673493 -2.39453125 105.84765625 C-3.59142578 104.46900391 -3.59142578 104.46900391 -4.8125 103.0625 C-5.46641724 102.31661621 -5.46641724 102.31661621 -6.13354492 101.55566406 C-9.45994216 97.72869544 -12.61722976 93.77366772 -15.74609375 89.78515625 C-18.53457163 86.33942882 -21.45278948 83.01974902 -24.375 79.6875 C-28.59777326 74.83364581 -32.79145629 69.9605063 -36.8125 64.9375 C-37.62332031 63.93589844 -38.43414063 62.93429687 -39.26953125 61.90234375 C-41.32530892 58.45439159 -41.74886291 56.94165003 -41 53 C-39.39262078 50.57546151 -37.83640029 48.54542667 -35.9375 46.375 C-34.82763804 45.04945704 -33.72102583 43.72118827 -32.6171875 42.390625 C-32.02776367 41.68357422 -31.43833984 40.97652344 -30.83105469 40.24804688 C-27.61652761 36.30146483 -24.59682467 32.21071051 -21.5625 28.125 C-20.30122627 26.43326187 -19.03950718 24.7418557 -17.77734375 23.05078125 C-17.15456543 22.21627441 -16.53178711 21.38176758 -15.89013672 20.52197266 C-12.82602863 16.43359284 -9.72882046 12.37077454 -6.625 8.3125 C-6.07142822 7.58756348 -5.51785645 6.86262695 -4.94750977 6.11572266 C-1.12786106 1.12786106 -1.12786106 1.12786106 0 0 Z " fill="#FBFDFA" transform="translate(554,545)"/>
<path d="M0 0 C1.8567485 -0.00472824 1.8567485 -0.00472824 3.75100708 -0.009552 C5.10207149 -0.0077625 6.45313557 -0.00571162 7.80419922 -0.00341797 C9.18757138 -0.00409148 10.57094343 -0.00506191 11.95431519 -0.00631714 C14.85106536 -0.00779088 17.74778467 -0.00564927 20.64453125 -0.00097656 C24.36498013 0.00473121 28.08535704 0.00143308 31.8058033 -0.00454903 C34.66072131 -0.00815427 37.51562211 -0.00701641 40.37054062 -0.00442123 C41.74292891 -0.00375242 43.11531874 -0.00457883 44.48770523 -0.00690079 C46.40065737 -0.00942782 48.31361496 -0.00489629 50.2265625 0 C51.31671661 0.00079559 52.40687073 0.00159119 53.53005981 0.00241089 C55.98388672 0.12939453 55.98388672 0.12939453 56.98388672 1.12939453 C57.08319204 3.11826947 57.11188134 5.1106987 57.11328125 7.10205078 C57.11643341 8.38007568 57.11958557 9.65810059 57.12283325 10.97485352 C57.12104347 12.3805342 57.11899252 13.78621458 57.11669922 15.19189453 C57.1173723 16.62296566 57.11834236 18.05403668 57.11959839 19.48510742 C57.12107516 22.48796678 57.11892148 25.49079643 57.11425781 28.49365234 C57.10856052 32.35092024 57.11183964 36.20811857 57.11783028 40.06538391 C57.12143646 43.02153044 57.12029704 45.97766036 57.11770248 48.93380737 C57.11703337 50.35643522 57.11786109 51.77906456 57.12018204 53.20169067 C57.12270945 55.18670627 57.11817714 57.17172712 57.11328125 59.15673828 C57.11248566 60.28845459 57.11169006 61.4201709 57.11087036 62.58618164 C56.98388672 65.12939453 56.98388672 65.12939453 55.98388672 66.12939453 C54.25890581 66.24927517 52.52904148 66.29957359 50.80004883 66.32226562 C49.69056381 66.33832855 48.5810788 66.35439148 47.43797302 66.37094116 C42.29436076 66.41555518 37.15083863 66.45700332 32.00708008 66.47949219 C29.30978387 66.49268938 26.61327007 66.52025825 23.91625977 66.56152344 C-12.86680947 67.08339784 -12.86680947 67.08339784 -23.75439453 56.85205078 C-29.24077059 49.36136396 -29.1904762 41.0074262 -28.01611328 32.12939453 C-25.72295608 21.9497905 -20.51791155 8.61332303 -11.76611328 2.50439453 C-7.60626525 0.42447052 -4.60441626 0.0033554 0 0 Z " fill="#FBFDFB" transform="translate(444.01611328125,566.87060546875)"/>
<path d="M0 0 C9.27155109 7.06338581 21.17810745 16.57254753 22.91699219 28.984375 C23.40988857 43.89984804 11.65509372 59.55069449 4.640625 72.01171875 C3.73755431 73.63110524 2.83516787 75.25087358 1.93359375 76.87109375 C-3.89393422 87.31355759 -3.89393422 87.31355759 -6.359375 91.01171875 C-12.1369085 92.05585131 -16.07123928 89.34356048 -20.859375 86.51171875 C-21.65255127 86.05684082 -22.44572754 85.60196289 -23.26293945 85.13330078 C-25.63509995 83.7706261 -27.99758612 82.39226904 -30.359375 81.01171875 C-32.7521454 79.63129723 -35.14942984 78.25903058 -37.546875 76.88671875 C-38.65289062 76.25121094 -39.75890625 75.61570312 -40.8984375 74.9609375 C-45.3253855 72.4676564 -49.80224591 70.0759631 -54.29956055 67.71240234 C-57.71910479 65.91106456 -61.06610239 64.03499588 -64.359375 62.01171875 C-63.86956707 56.4777485 -61.78556619 52.86327428 -58.921875 48.26171875 C-58.00695812 46.75391057 -57.0942678 45.24474952 -56.18359375 43.734375 C-55.7148584 42.95852051 -55.24612305 42.18266602 -54.76318359 41.38330078 C-52.48936874 37.54193774 -50.37049182 33.61820674 -48.234375 29.69921875 C-32.13974252 0.52886568 -32.13974252 0.52886568 -19.3359375 -3.6484375 C-11.78076588 -4.94744922 -6.4353248 -4.34080871 0 0 Z " fill="#FBFDFA" transform="translate(486.359375,381.98828125)"/>
<path d="M0 0 C1.57885742 1.57983398 1.57885742 1.57983398 2.91796875 3.80859375 C3.42247559 4.63343262 3.92698242 5.45827148 4.44677734 6.30810547 C4.95934082 7.19643066 5.4719043 8.08475586 6 9 C6.51127441 9.87156738 7.02254883 10.74313477 7.54931641 11.64111328 C9.16329465 14.4342077 10.74216255 17.24465616 12.3125 20.0625 C13.45174412 22.0963983 14.59106743 24.13025225 15.73046875 26.1640625 C16.28395996 27.15438477 16.83745117 28.14470703 17.40771484 29.16503906 C18.83696542 31.70972745 20.28205673 34.24411999 21.73828125 36.7734375 C22.1458667 37.48491943 22.55345215 38.19640137 22.97338867 38.92944336 C23.71008377 40.21401346 24.45075865 41.49631451 25.1965332 42.77563477 C30.36496011 51.84027986 32.12451177 59.49603774 31 70 C27.83669688 77.08579898 20.94370068 82.21546325 13.84375 85.12109375 C2.37621345 88.66531865 -11.69257931 91.58884521 -23.1484375 87.046875 C-29.94033788 83.2067288 -32.77811214 77.76239278 -36.5 71.125 C-37.73208378 68.96427943 -38.96518145 66.80413672 -40.19921875 64.64453125 C-41.13773682 62.99445068 -41.13773682 62.99445068 -42.09521484 61.31103516 C-43.95135076 58.08456562 -45.84930263 54.88789209 -47.76953125 51.69921875 C-48.36507812 50.70841309 -48.960625 49.71760742 -49.57421875 48.69677734 C-50.71129717 46.81005761 -51.85304296 44.92614093 -53 43.04541016 C-53.51175781 42.19124512 -54.02351562 41.33708008 -54.55078125 40.45703125 C-55.00106689 39.71428955 -55.45135254 38.97154785 -55.9152832 38.20629883 C-57.09399783 35.80880972 -57.58921033 33.63038366 -58 31 C-44.89341228 23.30734346 -31.76096786 15.67134916 -18.48999023 8.26489258 C-12.94409022 5.15912472 -12.94409022 5.15912472 -7.6640625 1.6328125 C-4.66810998 -0.20341646 -3.43750052 -0.46467135 0 0 Z " fill="#FBFDFA" transform="translate(629,474)"/>
<path d="M0 0 C0.7437236 -0.00540298 1.4874472 -0.01080597 2.25370789 -0.01637268 C4.70275132 -0.02884099 7.15061474 -0.0123827 9.59960938 0.00561523 C11.3068447 0.0054602 13.01408038 0.0039705 14.72131348 0.00120544 C18.29565022 -0.00017769 21.86958529 0.01236497 25.44384766 0.03515625 C30.02047217 0.06354078 34.59642945 0.0608025 39.17310333 0.04806614 C42.69734372 0.04110391 46.22143048 0.04890443 49.74565125 0.06132317 C51.43291128 0.06583238 53.12018784 0.06617909 54.80744934 0.06225777 C57.16754843 0.05934015 59.52673511 0.07587778 61.88671875 0.09765625 C62.92798164 0.09090378 62.92798164 0.09090378 63.99028015 0.08401489 C68.28526987 0.1497104 71.03067379 0.85974678 74.44335938 3.50170898 C75.09033203 5.52294922 75.09033203 5.52294922 75.10742188 7.81030273 C75.11386719 8.63981445 75.1203125 9.46932617 75.12695312 10.32397461 C75.09794922 11.61851562 75.09794922 11.61851562 75.06835938 12.93920898 C75.08769531 13.79836914 75.10703125 14.6575293 75.12695312 15.54272461 C75.12050781 16.37352539 75.1140625 17.20432617 75.10742188 18.06030273 C75.10178223 18.81625732 75.09614258 19.57221191 75.09033203 20.35107422 C74.09691878 23.65332981 72.30392679 24.64895481 69.44335938 26.50170898 C66.7843992 26.89372593 64.54012962 27.06010073 61.88671875 27.03515625 C61.14299515 27.04377182 60.39927155 27.05238739 59.63301086 27.06126404 C57.18401915 27.0838959 54.73617424 27.07719138 52.28710938 27.06811523 C50.57987122 27.07335179 48.87263597 27.07962839 47.16540527 27.0868988 C43.59108851 27.0972976 40.01716999 27.09274878 36.44287109 27.078125 C31.86598767 27.06093053 27.29035887 27.08444241 22.71361542 27.1196146 C19.18934842 27.14159037 15.66538162 27.1401469 12.1410675 27.13184929 C10.45378747 27.13103 8.76648534 27.13788924 7.07926941 27.15262032 C4.71873143 27.17007247 2.36044788 27.15552218 0 27.1328125 C-0.69417526 27.1445047 -1.38835052 27.1561969 -2.1035614 27.16824341 C-5.95284614 27.09302196 -7.47249331 26.57089003 -10.48849487 24.09130859 C-12.52386213 21.54275212 -13.19363434 20.60583107 -13.22070312 17.43530273 C-13.22714844 16.7024707 -13.23359375 15.96963867 -13.24023438 15.21459961 C-13.22089844 14.4637207 -13.2015625 13.7128418 -13.18164062 12.93920898 C-13.20097656 12.18446289 -13.2203125 11.4297168 -13.24023438 10.65209961 C-13.20812604 7.00780411 -13.01255866 4.98963689 -10.48742676 2.28721619 C-6.90910344 0.10721336 -4.06516436 -0.05661666 0 0 Z " fill="#FCFDFA" transform="translate(275.556640625,269.498291015625)"/>
<path d="M0 0 C0.33 0 0.66 0 1 0 C1 41.91 1 83.82 1 127 C0.67 127 0.34 127 0 127 C-0.33 88.72 -0.66 50.44 -1 11 C-1.99 11.33 -2.98 11.66 -4 12 C-2.66666667 8 -1.33333333 4 0 0 Z " fill="#EEFCE0" transform="translate(840,492)"/>
<path d="M0 0 C2.88941895 2.60979776 4.37792911 4.15879696 5 8 C5.08900538 10.54771537 5.12633393 13.06708119 5.11352539 15.61425781 C5.11367142 16.37562042 5.11381744 17.13698303 5.1139679 17.92141724 C5.11327255 20.43201571 5.10549787 22.94253952 5.09765625 25.453125 C5.09579073 27.19618692 5.09436746 28.93924937 5.09336853 30.68231201 C5.08955394 35.26572116 5.07973267 39.84909851 5.06866455 44.43249512 C5.0584277 49.11124237 5.05386604 53.78999477 5.04882812 58.46875 C5.03810946 67.64584728 5.02104572 76.822921 5 86 C4.01 85.67 3.02 85.34 2 85 C2.66 85 3.32 85 4 85 C3.89192575 76.32380801 3.77918323 67.64769236 3.66066074 58.97163677 C3.60575487 54.9419724 3.55239095 50.9123005 3.50268555 46.88256836 C3.45455955 42.98566432 3.40220739 39.0888369 3.34705925 35.19202614 C3.32685171 33.71348825 3.30810648 32.23492954 3.29092598 30.75635338 C3.53093407 15.08120493 3.53093407 15.08120493 0 0 Z " fill="#CEF2B8" transform="translate(835,332)"/>
<path d="M0 0 C0.66 0.33 1.32 0.66 2 1 C-6.91 9.91 -15.82 18.82 -25 28 C-25.66 27.67 -26.32 27.34 -27 27 C-18.35373511 17.56916662 -9.61529055 8.45142857 0 0 Z " fill="#E4F6D4" transform="translate(386,359)"/>
<path d="M0 0 C4.20457011 4.1403782 8.23062271 8.43042658 12.25 12.75 C17.72531385 18.61569027 23.25567215 24.39577771 29 30 C26 30 26 30 23.68359375 27.8671875 C22.35521484 26.44792969 22.35521484 26.44792969 21 25 C20.03691409 24.0398754 19.06935446 23.08422003 18.09765625 22.1328125 C4.36091882 8.54137824 4.36091882 8.54137824 0 2 C0 1.34 0 0.68 0 0 Z " fill="#38A32E" transform="translate(354,627)"/>
<path d="M0 0 C0.33 0 0.66 0 1 0 C3.16094912 29.36575501 3.16094912 29.36575501 0 36 C-0.33 36 -0.66 36 -1 36 C-1.184693 23.97443352 -0.61321066 12.0065343 0 0 Z " fill="#46B514" transform="translate(713,499)"/>
<path d="M0 0 C1 3 1 3 0.20703125 4.98828125 C-4.64871414 13.08119023 -10.7450244 19.9758041 -17 27 C-17 22.92525601 -14.89732886 21.01984372 -12.4375 18 C-7.86559935 12.24312403 -3.80955497 6.2945958 0 0 Z " fill="#41A933" transform="translate(684,612)"/>
<path d="M0 0 C0.66 0 1.32 0 2 0 C5.59345557 5.53991066 5.65576134 10.6196194 5 17 C3.76058278 22.74802191 1.49100622 27.30519854 -2 32 C-2.33 31.34 -2.66 30.68 -3 30 C-1.82982094 26.92216569 -0.54381854 23.93368735 0.81835938 20.9375 C3.17024216 15.45160947 4.01945758 10.59237432 2.34375 4.6875 C2.0653125 4.130625 1.786875 3.57375 1.5 3 C0.7575 1.515 0.7575 1.515 0 0 Z " fill="#63B538" transform="translate(505,402)"/>
<path d="M0 0 C0 4.97877063 -3.97357522 7.78527301 -7.2421875 11.2578125 C-10.5830891 14.57978548 -14.07640236 17.40253452 -18 20 C-18 17 -18 17 -15.5859375 14.51171875 C-14.5225937 13.56244822 -13.45184327 12.62142888 -12.375 11.6875 C-11.27254581 10.70673057 -10.17097432 9.72496798 -9.0703125 8.7421875 C-8.53954102 8.27135742 -8.00876953 7.80052734 -7.46191406 7.31542969 C-4.86651904 4.98009429 -2.43379504 2.50140045 0 0 Z " fill="#49AF35" transform="translate(822,661)"/>
<path d="M0 0 C0.33 0.66 0.66 1.32 1 2 C-10.26666667 18.26666667 -10.26666667 18.26666667 -13 21 C-14.66617115 21.04063832 -16.33388095 21.042721 -18 21 C-17.443125 20.81050781 -16.88625 20.62101562 -16.3125 20.42578125 C-12.98196532 18.37232659 -11.15375318 15.36918084 -9 12.1875 C-8.14717164 10.95089888 -7.29302465 9.71520602 -6.4375 8.48046875 C-6.03015625 7.89056152 -5.6228125 7.3006543 -5.203125 6.69287109 C-3.56255768 4.38449167 -1.79892728 2.18619635 0 0 Z " fill="#84D34A" transform="translate(345,373)"/>
<path d="M0 0 C-3.21551323 2.86527579 -5.37120225 3.39817027 -9.640625 3.51171875 C-10.71054687 3.54716797 -11.78046875 3.58261719 -12.8828125 3.61914062 C-14.54957031 3.65297852 -14.54957031 3.65297852 -16.25 3.6875 C-17.93996094 3.73874023 -17.93996094 3.73874023 -19.6640625 3.79101562 C-22.44260901 3.87343014 -25.22084252 3.94260298 -28 4 C-28 3.67 -28 3.34 -28 3 C-24.83486722 2.48996146 -21.66769716 1.99384043 -18.5 1.5 C-17.613125 1.35691406 -16.72625 1.21382813 -15.8125 1.06640625 C-10.46923901 0.24134389 -5.40603486 -0.15157107 0 0 Z " fill="#7FCF4D" transform="translate(278,398)"/>
<path d="M0 0 C0.33 0 0.66 0 1 0 C0.22095672 11.52164009 0.22095672 11.52164009 -2 17 C-2.99 17 -3.98 17 -5 17 C-4.46246904 10.81839396 -2.45417612 5.673142 0 0 Z " fill="#59B735" transform="translate(839,631)"/>
<path d="M0 0 C2 2 2 2 2.23046875 4.3203125 C2.05580694 15.72096531 2.05580694 15.72096531 1 21 C0.01 21.66 -0.98 22.32 -2 23 C-2 20 -2 20 -1 19 C-0.84379445 17.58672053 -0.74943827 16.1664541 -0.68359375 14.74609375 C-0.64169922 13.89208984 -0.59980469 13.03808594 -0.55664062 12.15820312 C-0.51732422 11.26037109 -0.47800781 10.36253906 -0.4375 9.4375 C-0.39431641 8.53580078 -0.35113281 7.63410156 -0.30664062 6.70507812 C-0.20021858 4.47021515 -0.09820012 2.23523692 0 0 Z " fill="#D0F5A8" transform="translate(350,273)"/>
<path d="M0 0 C0.33 0 0.66 0 1 0 C1 7.26 1 14.52 1 22 C0.67 22 0.34 22 0 22 C-0.33 18.37 -0.66 14.74 -1 11 C-1.99 11.33 -2.98 11.66 -4 12 C-2.66666667 8 -1.33333333 4 0 0 Z " fill="#E4FACF" transform="translate(840,492)"/>
<path d="M0 0 C5.7883523 -0.30748219 10.43780698 0.75630984 15.9375 2.5 C16.71673828 2.73847656 17.49597656 2.97695313 18.29882812 3.22265625 C20.20190376 3.80642178 22.10134922 4.40199976 24 5 C24 5.33 24 5.66 24 6 C19.20644984 5.3547144 14.48459557 4.55143609 9.75 3.5625 C8.54859375 3.31628906 7.3471875 3.07007813 6.109375 2.81640625 C3 2 3 2 0 0 Z " fill="#CEF4A8" transform="translate(793,314)"/>
<path d="M0 0 C-1.60149886 0.67305018 -3.20631029 1.33822227 -4.8125 2 C-6.15248047 2.556875 -6.15248047 2.556875 -7.51953125 3.125 C-10 4 -10 4 -13 4 C-13 4.66 -13 5.32 -13 6 C-14.65 6.66 -16.3 7.32 -18 8 C-18.66 7.34 -19.32 6.68 -20 6 C-17.42249905 4.79816525 -14.83928838 3.61343114 -12.25 2.4375 C-11.52039063 2.09525391 -10.79078125 1.75300781 -10.0390625 1.40039062 C-9.33007812 1.08134766 -8.62109375 0.76230469 -7.890625 0.43359375 C-7.24125977 0.13509521 -6.59189453 -0.16340332 -5.92285156 -0.47094727 C-3.60506519 -1.10866223 -2.25095697 -0.75542816 0 0 Z " fill="#75C54C" transform="translate(454,347)"/>
<path d="M0 0 C1.29646556 3.5838602 0.7012466 5.44098829 -0.8125 8.875 C-2.38174314 12.54561717 -3.79652621 16.18899966 -5 20 C-5.66 20 -6.32 20 -7 20 C-6.72736328 19.19949219 -6.72736328 19.19949219 -6.44921875 18.3828125 C-4.72647905 13.27643533 -3.1353252 8.14887489 -1.6484375 2.96875 C-1 1 -1 1 0 0 Z " fill="#4CAB34" transform="translate(705,566)"/>
<path d="M0 0 C7.01524148 0.55789568 14.00982196 1.18447923 21 2 C21 2.33 21 2.66 21 3 C18.06195004 3.08086376 15.12611925 3.1404283 12.1875 3.1875 C11.35412109 3.21263672 10.52074219 3.23777344 9.66210938 3.26367188 C8.45844727 3.27817383 8.45844727 3.27817383 7.23046875 3.29296875 C6.12288208 3.31653442 6.12288208 3.31653442 4.99291992 3.34057617 C2.47769478 2.91074167 1.60558484 1.92536938 0 0 Z " fill="#6BBC4B" transform="translate(570,470)"/>
<path d="M0 0 C5.58490476 4.44512827 9.79211991 9.24454091 14 15 C13.01 15.33 12.02 15.66 11 16 C7 10.25 7 10.25 7 8 C6.01 8 5.02 8 4 8 C2.15473038 5.37403939 1.01624151 3.04872454 0 0 Z " fill="#81D049" transform="translate(676,368)"/>
<path d="M0 0 C0.66 0.33 1.32 0.66 2 1 C1.21753906 1.77085937 0.43507813 2.54171875 -0.37109375 3.3359375 C-1.39336057 4.34882573 -2.41548881 5.36185384 -3.4375 6.375 C-4.2119043 7.13683594 -4.2119043 7.13683594 -5.00195312 7.9140625 C-7.857133 10.68568936 -7.857133 10.68568936 -10 14 C-11.32 13.67 -12.64 13.34 -14 13 C-13.15695312 12.22914063 -12.31390625 11.45828125 -11.4453125 10.6640625 C-10.33851968 9.65106568 -9.23175006 8.63804353 -8.125 7.625 C-7.56941406 7.11710937 -7.01382812 6.60921875 -6.44140625 6.0859375 C-4.25988219 4.0883974 -2.09183907 2.09183907 0 0 Z " fill="#81CE49" transform="translate(371,347)"/>
<path d="M0 0 C0.66 0 1.32 0 2 0 C2.27714844 0.85464844 2.55429687 1.70929688 2.83984375 2.58984375 C3.20207031 3.69457031 3.56429687 4.79929687 3.9375 5.9375 C4.29714844 7.03964844 4.65679688 8.14179688 5.02734375 9.27734375 C5.73856668 11.88123475 5.73856668 11.88123475 7 13 C7.04092937 15.33297433 7.04241723 17.66705225 7 20 C6.67 20 6.34 20 6 20 C1.77676538 6.3667426 1.77676538 6.3667426 0 0 Z " fill="#77C946" transform="translate(698,436)"/>
<path d="M0 0 C0 0.33 0 0.66 0 1 C-6.75887425 3.07965362 -12.95559921 3.21133202 -20 3 C-20 2.67 -20 2.34 -20 2 C-13.2168636 0.57997892 -6.93302093 -0.22731216 0 0 Z " fill="#4EB34B" transform="translate(562,702)"/>
<path d="M0 0 C0 3.74706213 -1.04260246 4.76906031 -3.3125 7.6875 C-3.92738281 8.49574219 -4.54226563 9.30398438 -5.17578125 10.13671875 C-5.77777344 10.75160156 -6.37976563 11.36648438 -7 12 C-7.99 12 -8.98 12 -10 12 C-8.52149287 10.18696196 -7.04217625 8.37458402 -5.5625 6.5625 C-4.32693359 5.04849609 -4.32693359 5.04849609 -3.06640625 3.50390625 C-1 1 -1 1 0 0 Z " fill="#5EB841" transform="translate(380,393)"/>
<path d="M0 0 C0.33 0 0.66 0 1 0 C0.58669586 5.99291003 -0.31903365 9.25036599 -4 14 C-4.33 13.34 -4.66 12.68 -5 12 C-4.26821134 9.92803369 -3.44100997 7.8891448 -2.5625 5.875 C-2.08941406 4.77929688 -1.61632812 3.68359375 -1.12890625 2.5546875 C-0.75636719 1.71164062 -0.38382812 0.86859375 0 0 Z " fill="#54AB45" transform="translate(415,581)"/>
<path d="M0 0 C0.33 0 0.66 0 1 0 C1.74737188 5.97897503 -0.6768102 9.32379721 -4 14 C-4.33 13.34 -4.66 12.68 -5 12 C-4.26821134 9.92803369 -3.44100997 7.8891448 -2.5625 5.875 C-2.08941406 4.77929688 -1.61632812 3.68359375 -1.12890625 2.5546875 C-0.75636719 1.71164062 -0.38382812 0.86859375 0 0 Z " fill="#6CC148" transform="translate(507,420)"/>
<path d="M0 0 C0 0.33 0 0.66 0 1 C-7.05112439 3.21211746 -13.64657821 3.20177072 -21 3 C-15.06281054 -0.9581263 -6.95604187 -0.12881559 0 0 Z " fill="#C8EEB3" transform="translate(504,368)"/>
<path d="M0 0 C4.49014624 1.49671541 8.47848764 3.83368341 12 7 C12 7.66 12 8.32 12 9 C8.98472262 7.59422879 6.4052059 5.93873852 3.75 3.9375 C3.04359375 3.41027344 2.3371875 2.88304687 1.609375 2.33984375 C1.07828125 1.89769531 0.5471875 1.45554687 0 1 C0 0.67 0 0.34 0 0 Z " fill="#83CC4D" transform="translate(627,349)"/>
<path d="M0 0 C2.64 0 5.28 0 8 0 C6.0373772 2.04795423 4.5722693 2.94976638 1.73046875 3.19921875 C-0.51954383 3.18858877 -2.75385562 3.12958525 -5 3 C-5 2.67 -5 2.34 -5 2 C-3.35 2 -1.7 2 0 2 C0 1.34 0 0.68 0 0 Z " fill="#73CD37" transform="translate(270,398)"/>
<path d="M0 0 C1.958964 0.30852185 3.91715713 0.6219418 5.875 0.9375 C6.96554687 1.11152344 8.05609375 1.28554688 9.1796875 1.46484375 C12 2 12 2 14 3 C14 3.66 14 4.32 14 5 C10.88200997 4.24964259 7.81929597 3.36636589 4.75 2.4375 C3.85796875 2.16808594 2.9659375 1.89867187 2.046875 1.62109375 C1.37140625 1.41613281 0.6959375 1.21117187 0 1 C0 0.67 0 0.34 0 0 Z " fill="#269F21" transform="translate(462,700)"/>
<path d="M0 0 C-0.33 1.32 -0.66 2.64 -1 4 C-3.64 4.66 -6.28 5.32 -9 6 C-3.2 0 -3.2 0 0 0 Z " fill="#82D04F" transform="translate(398,329)"/>
<path d="M0 0 C2.46313739 1.82748903 3.83428618 3.22976216 4.48828125 6.26953125 C4.72518293 8.51479346 4.90361349 10.74455578 5 13 C3.09610151 10.14415227 2.30537823 8.0688238 1.375 4.8125 C0.98441406 3.46091797 0.98441406 3.46091797 0.5859375 2.08203125 C0.39257812 1.39496094 0.19921875 0.70789063 0 0 Z " fill="#C2F297" transform="translate(835,332)"/>
<path d="M0 0 C-0.33 1.98 -0.66 3.96 -1 6 C-1.99 6 -2.98 6 -4 6 C-4 4.35 -4 2.7 -4 1 C-2 0 -2 0 0 0 Z " fill="#48B323" transform="translate(838,642)"/>
<path d="M0 0 C0.66 1.32 1.32 2.64 2 4 C-0.97 6.475 -0.97 6.475 -4 9 C-2.94124926 5.59687262 -1.99097846 2.98646769 0 0 Z " fill="#64BB43" transform="translate(487,459)"/>
<path d="M0 0 C0.66 0.33 1.32 0.66 2 1 C-0.06756277 3.7972908 -1.14440371 4.02692273 -4.6875 4.6875 C-5.780625 4.790625 -6.87375 4.89375 -8 5 C-5.45378681 2.99940392 -3.01962385 1.20784954 0 0 Z " fill="#3FA739" transform="translate(614,680)"/>
<path d="M0 0 C0.66 0.99 1.32 1.98 2 3 C0.02 4.98 -1.96 6.96 -4 9 C-4.66 8.67 -5.32 8.34 -6 8 C-4.02 5.36 -2.04 2.72 0 0 Z " fill="#5BBA41" transform="translate(830,650)"/>
<path d="M0 0 C-0.99 0.33 -1.98 0.66 -3 1 C-3.73323796 3.01508358 -3.73323796 3.01508358 -4 5 C-4.99 4.67 -5.98 4.34 -7 4 C-6.625 2.0625 -6.625 2.0625 -6 0 C-3.50907189 -1.24546405 -2.58919267 -0.7767578 0 0 Z " fill="#CCEFC4" transform="translate(377,481)"/>
<path d="M0 0 C3.08089673 2.77280706 4.68775452 5.06326356 6 9 C3 8 3 8 1.3125 5.625 C0 3 0 3 0 0 Z " fill="#64BA3E" transform="translate(506,392)"/>
<path d="M0 0 C2.76276177 0.52268466 5.3260876 1.10869587 8 2 C8.33 2.99 8.66 3.98 9 5 C5.22454612 3.90931332 2.52956528 3.0916909 0 0 Z " fill="#C9F5A7" transform="translate(819,321)"/>
<path d="M0 0 C4.12751449 0.60698743 7.3321148 2.03810791 11 4 C11 4.66 11 5.32 11 6 C7.2089881 4.55049545 3.6125362 2.84827434 0 1 C0 0.67 0 0.34 0 0 Z " fill="#D4F5AD" transform="translate(597,233)"/>
<path d="M0 0 C0.66 0.33 1.32 0.66 2 1 C0.02 3.31 -1.96 5.62 -4 8 C-4.33 6.68 -4.66 5.36 -5 4 C-3.35 2.68 -1.7 1.36 0 0 Z " fill="#E3F7D6" transform="translate(527,454)"/>
</svg>
